<svg width="34" height="31" viewBox="0 0 34 31" fill="none" xmlns="http://www.w3.org/2000/svg">
<path d="M23.375 8.82812C23.0872 8.82812 22.8382 8.72298 22.6279 8.5127C22.4176 8.30241 22.3125 8.05339 22.3125 7.76562C22.3125 7.20117 22.4176 6.65885 22.6279 6.13867C22.8382 5.61849 23.1481 5.15918 23.5576 4.76074L24.8691 3.43262C25.2897 3.01204 25.5 2.50846 25.5 1.92188C25.5 1.63411 25.6051 1.38509 25.8154 1.1748C26.0257 0.964518 26.2747 0.859375 26.5625 0.859375C26.8503 0.859375 27.0993 0.964518 27.3096 1.1748C27.5199 1.38509 27.625 1.63411 27.625 1.92188C27.625 2.48633 27.5199 3.02865 27.3096 3.54883C27.0993 4.06901 26.7894 4.52832 26.3799 4.92676L25.0684 6.25488C24.6478 6.67546 24.4375 7.17904 24.4375 7.76562C24.4375 8.05339 24.3324 8.30241 24.1221 8.5127C23.9118 8.72298 23.6628 8.82812 23.375 8.82812ZM17 8.82812C16.7122 8.82812 16.4632 8.72298 16.2529 8.5127C16.0426 8.30241 15.9375 8.05339 15.9375 7.76562C15.9375 7.20117 16.0426 6.65885 16.2529 6.13867C16.4632 5.61849 16.7731 5.15918 17.1826 4.76074L18.4941 3.43262C18.9147 3.01204 19.125 2.50846 19.125 1.92188C19.125 1.63411 19.2301 1.38509 19.4404 1.1748C19.6507 0.964518 19.8997 0.859375 20.1875 0.859375C20.4753 0.859375 20.7243 0.964518 20.9346 1.1748C21.1449 1.38509 21.25 1.63411 21.25 1.92188C21.25 2.48633 21.1449 3.02865 20.9346 3.54883C20.7243 4.06901 20.4144 4.52832 20.0049 4.92676L18.6934 6.25488C18.2728 6.67546 18.0625 7.17904 18.0625 7.76562C18.0625 8.05339 17.9574 8.30241 17.7471 8.5127C17.5368 8.72298 17.2878 8.82812 17 8.82812ZM30.8125 11.75C31.2552 11.75 31.6702 11.833 32.0576 11.999C32.445 12.165 32.7826 12.3919 33.0703 12.6797C33.3581 12.9674 33.585 13.305 33.751 13.6924C33.917 14.0798 34 14.4948 34 14.9375V21.3125C34 21.7552 33.917 22.1702 33.751 22.5576C33.585 22.945 33.3581 23.2826 33.0703 23.5703C32.7826 23.8581 32.445 24.085 32.0576 24.251C31.6702 24.417 31.2552 24.5 30.8125 24.5H29.8662C29.8441 24.5775 29.8275 24.6494 29.8164 24.7158C29.8053 24.7822 29.7832 24.8486 29.75 24.915V25.5625C29.75 26.293 29.6117 26.9792 29.335 27.6211C29.0583 28.263 28.6764 28.8275 28.1895 29.3145C27.7025 29.8014 27.138 30.1833 26.4961 30.46C25.8542 30.7367 25.168 30.875 24.4375 30.875H18.0625C17.1992 30.875 16.4023 30.6813 15.6719 30.2939C14.9414 29.9066 14.3327 29.3919 13.8457 28.75H5.54492C4.81445 28.75 4.12826 28.6117 3.48633 28.335C2.8444 28.0583 2.27995 27.682 1.79297 27.2061C1.30599 26.7301 0.924154 26.1657 0.647461 25.5127C0.370768 24.8597 0.232422 24.168 0.232422 23.4375V22.375H4.48242C4.48242 21.5007 4.64844 20.6761 4.98047 19.9014C5.3125 19.1266 5.77181 18.4515 6.3584 17.876C6.94499 17.3005 7.62012 16.8411 8.38379 16.498C9.14746 16.1549 9.972 15.9889 10.8574 16C11.1895 16 11.5104 16.0277 11.8203 16.083C12.1302 16.1383 12.4401 16.2158 12.75 16.3154V9.625H29.75V11.75H30.8125ZM10.8574 18.125C10.2708 18.125 9.72298 18.2357 9.21387 18.457C8.70475 18.6784 8.25098 18.9827 7.85254 19.3701C7.4541 19.7575 7.14974 20.2057 6.93945 20.7148C6.72917 21.224 6.61849 21.7773 6.60742 22.375H12.75V18.5898C12.4622 18.446 12.1634 18.3353 11.8535 18.2578C11.5436 18.1803 11.2116 18.1361 10.8574 18.125ZM5.54492 26.625H12.8662C12.7887 26.304 12.75 25.9499 12.75 25.5625V24.5H2.54004C2.65072 24.8099 2.80566 25.0921 3.00488 25.3467C3.2041 25.6012 3.43099 25.8281 3.68555 26.0273C3.9401 26.2266 4.22786 26.3704 4.54883 26.459C4.86979 26.5475 5.20182 26.6029 5.54492 26.625ZM13.2314 27.7373V27.7539L13.248 27.7871V27.7705L13.2314 27.7373ZM27.625 25.5625V11.75H14.875V25.5625C14.875 26.0052 14.958 26.4202 15.124 26.8076C15.29 27.195 15.5169 27.5326 15.8047 27.8203C16.0924 28.1081 16.43 28.335 16.8174 28.501C17.2048 28.667 17.6198 28.75 18.0625 28.75H24.4375C24.8802 28.75 25.2952 28.667 25.6826 28.501C26.07 28.335 26.4076 28.1081 26.6953 27.8203C26.9831 27.5326 27.21 27.195 27.376 26.8076C27.542 26.4202 27.625 26.0052 27.625 25.5625ZM31.875 21.3125V14.9375C31.875 14.6497 31.7699 14.4007 31.5596 14.1904C31.3493 13.9801 31.1003 13.875 30.8125 13.875H29.75V22.375H30.8125C31.1003 22.375 31.3493 22.2699 31.5596 22.0596C31.7699 21.8493 31.875 21.6003 31.875 21.3125Z" fill="black"/>
</svg>
