<svg width="24" height="24" viewBox="0 0 24 24" fill="none" xmlns="http://www.w3.org/2000/svg">
<path d="M10.221 2.5005C10.614 1.98 11.223 1.5 12 1.5C12.777 1.5 13.386 1.98 13.779 2.5005C14.1825 3.033 14.454 3.72 14.544 4.401C14.634 5.076 14.559 5.841 14.1435 6.4635C13.701 7.125 12.9585 7.5 12 7.5C11.04 7.5 10.299 7.125 9.8565 6.4635C9.4425 5.8395 9.366 5.0745 9.456 4.401C9.546 3.72 9.8175 3.033 10.221 2.5005ZM11.106 5.631C11.226 5.811 11.46 6 12 6C12.54 6 12.774 5.8125 12.894 5.631C13.0425 5.4105 13.116 5.0505 13.056 4.599C12.9998 4.16802 12.8374 3.75775 12.5835 3.405C12.339 3.0825 12.123 3 12 3C11.877 3 11.661 3.0825 11.4165 3.405C11.1626 3.75775 11.0002 4.16802 10.944 4.599C10.884 5.049 10.959 5.409 11.106 5.631ZM3 12C3 11.2044 3.31607 10.4413 3.87868 9.87868C4.44129 9.31607 5.20435 9 6 9H18C18.7956 9 19.5587 9.31607 20.1213 9.87868C20.6839 10.4413 21 11.2044 21 12V19.5H21.75C21.9489 19.5 22.1397 19.579 22.2803 19.7197C22.421 19.8603 22.5 20.0511 22.5 20.25C22.5 20.4489 22.421 20.6397 22.2803 20.7803C22.1397 20.921 21.9489 21 21.75 21H2.25C2.05109 21 1.86032 20.921 1.71967 20.7803C1.57902 20.6397 1.5 20.4489 1.5 20.25C1.5 20.0511 1.57902 19.8603 1.71967 19.7197C1.86032 19.579 2.05109 19.5 2.25 19.5H3V12ZM4.5 19.5H19.5V15.03C19.365 15.155 19.225 15.282 19.08 15.411C18.6 15.837 18.0525 16.281 17.5065 16.62C16.9905 16.9425 16.362 17.25 15.75 17.25C14.658 17.25 13.962 16.485 13.5075 15.984L13.4145 15.8835C12.882 15.3045 12.537 15 12 15C11.463 15 11.118 15.3045 10.5855 15.8835L10.4925 15.984C10.038 16.485 9.342 17.25 8.25 17.25C7.659 17.25 7.0395 16.935 6.54 16.6185C5.98675 16.2566 5.46084 15.8545 4.9665 15.4155C4.80905 15.2777 4.65354 15.1377 4.5 14.9955V19.5ZM4.5 12.9C4.96614 13.3804 5.45102 13.8423 5.9535 14.2845C6.4125 14.685 6.897 15.0705 7.3395 15.3495C7.8195 15.6525 8.121 15.75 8.25 15.75C8.637 15.75 8.898 15.501 9.4815 14.8665L9.486 14.862C9.99 14.316 10.74 13.5 12 13.5C13.26 13.5 14.01 14.316 14.514 14.862L14.5185 14.8665C15.1035 15.501 15.363 15.75 15.75 15.75C15.915 15.75 16.239 15.645 16.7115 15.348C17.1979 15.0335 17.6575 14.6793 18.0855 14.289C18.5784 13.8515 19.0504 13.3909 19.5 12.909V12C19.5 11.6022 19.342 11.2206 19.0607 10.9393C18.7794 10.658 18.3978 10.5 18 10.5H6C5.60218 10.5 5.22064 10.658 4.93934 10.9393C4.65804 11.2206 4.5 11.6022 4.5 12V12.9Z" fill="black"/>
</svg>
