<svg width="29" height="29" viewBox="0 0 29 29" fill="none" xmlns="http://www.w3.org/2000/svg">
<g clip-path="url(#clip0_1_6763)">
<path d="M22.1589 0.522217C20.9267 4.36738 20.5159 6.17212 19.1995 8.8041C19.3567 8.92587 19.511 9.05445 19.6596 9.19169C21.0059 7.95551 22.0832 6.50182 22.6014 4.34891L23.6298 4.59677C23.0582 6.97171 21.8253 8.63536 20.3801 9.96704C20.4615 10.0692 20.54 10.1736 20.6155 10.2803C22.1621 10.0554 23.5772 9.58217 24.8386 8.44114L25.5485 9.22709C24.222 10.4269 22.7175 10.9858 21.1907 11.2591C21.2332 11.3474 21.2743 11.4368 21.3128 11.5264C24.3308 11.8484 26.8 11.3537 28.2461 9.0289C24.428 8.18207 27.2317 1.37058 22.1588 0.522217H22.1589ZM13.9936 8.71908C13.46 8.71579 12.9567 8.80177 12.5334 8.98104L12.5281 8.97039C11.931 9.25003 11.3707 9.63762 10.8766 10.1315C8.89009 12.1181 8.63724 15.1686 10.1156 17.4276C9.84046 16.7334 9.71772 15.9667 9.81656 15.1636C9.96439 13.9614 10.6034 12.7046 11.8467 11.4997L12.583 12.2591C11.4719 13.3359 10.9801 14.3654 10.8661 15.293C10.752 16.2205 11.0119 17.0735 11.5104 17.8152C12.3879 19.1213 14.0459 20.004 15.4239 20.0579C16.7662 19.9585 18.0817 19.3948 19.1108 18.3657C21.3889 16.0876 21.3889 12.4096 19.1108 10.1316C18.9602 9.98092 18.8038 9.84102 18.6418 9.71029C19.2017 10.3632 19.6038 11.1661 19.7338 12.0928C19.9022 13.2924 19.6122 14.671 18.7231 16.1567L17.8134 15.6133C18.6079 14.2857 18.8159 13.1652 18.686 12.2397C18.556 11.3142 18.0868 10.558 17.4133 9.9705C16.4873 9.1628 15.1678 8.72627 13.9937 8.71914L13.9936 8.71908ZM7.55982 17.9992C4.72706 18.0058 3.72469 18.2779 0.969971 21.1305C4.72853 20.9617 2.90028 27.1896 7.05714 28.2761C7.25952 25.5233 8.31728 23.3844 10.3688 19.4613C9.02019 20.3426 7.83878 21.4163 6.97037 23.0686L6.03223 22.5766C6.8811 20.9616 8.02258 19.8247 9.26782 18.9304C7.80083 19.0533 6.37048 19.4153 4.92417 20.3286L4.35957 19.4348C5.62866 18.6333 6.90761 18.2119 8.17035 18.0028C7.95976 18.0015 7.75223 17.9989 7.55977 17.9992H7.55982Z" fill="black"/>
</g>
<defs>
<clipPath id="clip0_1_6763">
<rect width="29" height="29" fill="white"/>
</clipPath>
</defs>
</svg>
