<svg width="28" height="28" viewBox="0 0 28 28" fill="none" xmlns="http://www.w3.org/2000/svg">
<path d="M19.8333 13.5333V17.4999C19.8333 21.3659 16.6993 24.4999 12.8333 24.4999H10.5C6.63401 24.4999 3.5 21.3659 3.5 17.4999V13.5333C3.5 13.1466 3.8134 12.8333 4.2 12.8333H19.1333C19.52 12.8333 19.8333 13.1466 19.8333 13.5333Z" stroke="black" stroke-width="1.5" stroke-linecap="round" stroke-linejoin="round"/>
<path d="M14 10.4999C14 9.33325 14.8334 8.16659 16.5001 8.16659C18.3409 8.16659 19.8333 6.6742 19.8333 4.83326V4.08325" stroke="black" stroke-width="1.5" stroke-linecap="round" stroke-linejoin="round"/>
<path d="M9.33331 10.5V9.91667C9.33331 7.98367 10.9003 6.41667 12.8333 6.41667C14.122 6.41667 15.1666 5.372 15.1666 4.08333V3.5" stroke="black" stroke-width="1.5" stroke-linecap="round" stroke-linejoin="round"/>
<path d="M18.6667 12.8333H21.5834C23.1942 12.8333 24.5 14.1391 24.5 15.7499C24.5 17.3607 23.1942 18.6666 21.5834 18.6666H19.8334" stroke="black" stroke-width="1.5" stroke-linecap="round" stroke-linejoin="round"/>
</svg>
